<svg width="42" height="42" viewBox="0 0 42 42" fill="none" xmlns="http://www.w3.org/2000/svg">
<path d="M33.4625 35.0108C32.0068 33.0834 30.1234 31.5204 27.9608 30.4449C25.7982 29.3693 23.4153 28.8107 21 28.8129C18.5847 28.8107 16.2018 29.3693 14.0392 30.4449C11.8766 31.5204 9.99321 33.0834 8.5375 35.0108M33.4625 35.0108C36.3031 32.4841 38.3065 29.1536 39.2108 25.461C40.1151 21.7683 39.8755 17.888 38.5239 14.3347C37.1722 10.7813 34.7723 7.72281 31.6425 5.56473C28.5126 3.40665 24.8007 2.25098 20.999 2.25098C17.1972 2.25098 13.4853 3.40665 10.3554 5.56473C7.22557 7.72281 4.82569 10.7813 3.47403 14.3347C2.12237 17.888 1.88282 21.7683 2.78712 25.461C3.69143 29.1536 5.69687 32.4841 8.5375 35.0108M33.4625 35.0108C30.0334 38.0695 25.5951 39.7569 21 39.7504C16.4042 39.7574 11.9672 38.07 8.5375 35.0108M27.25 16.3129C27.25 17.9705 26.5915 19.5602 25.4194 20.7323C24.2473 21.9044 22.6576 22.5629 21 22.5629C19.3424 22.5629 17.7527 21.9044 16.5806 20.7323C15.4085 19.5602 14.75 17.9705 14.75 16.3129C14.75 14.6553 15.4085 13.0655 16.5806 11.8934C17.7527 10.7213 19.3424 10.0629 21 10.0629C22.6576 10.0629 24.2473 10.7213 25.4194 11.8934C26.5915 13.0655 27.25 14.6553 27.25 16.3129Z" stroke="white" stroke-width="3" stroke-linecap="round" stroke-linejoin="round"/>
</svg>