<svg width="38" height="42" viewBox="0 0 38 42" fill="none" xmlns="http://www.w3.org/2000/svg">
<path d="M24.9521 31.5875C28.8338 31.1279 32.6476 30.2119 36.3146 28.8583C33.2091 25.4183 31.4931 20.9469 31.5 16.3125V14.75C31.5 11.4348 30.183 8.25537 27.8388 5.91117C25.4946 3.56696 22.3152 2.25 19 2.25C15.6848 2.25 12.5054 3.56696 10.1612 5.91117C7.81696 8.25537 6.5 11.4348 6.5 14.75V16.3125C6.50629 20.9471 4.78956 25.4187 1.68333 28.8583C5.29375 30.1917 9.1 31.1188 13.0479 31.5875M24.9521 31.5875C20.9979 32.0565 17.0021 32.0565 13.0479 31.5875M24.9521 31.5875C25.2523 32.5247 25.327 33.5196 25.17 34.4911C25.013 35.4626 24.6288 36.3833 24.0487 37.1783C23.4686 37.9732 22.709 38.62 21.8317 39.0659C20.9543 39.5117 19.9841 39.7441 19 39.7441C18.0159 39.7441 17.0457 39.5117 16.1684 39.0659C15.291 38.62 14.5314 37.9732 13.9513 37.1783C13.3712 36.3833 12.987 35.4626 12.83 34.4911C12.673 33.5196 12.7477 32.5247 13.0479 31.5875" stroke="white" stroke-width="3" stroke-linecap="round" stroke-linejoin="round"/>
</svg>